<mxfile host="app.diagrams.net" modified="2021-08-27T15:43:31.913Z" agent="5.0 (Windows NT 6.3; WOW64) AppleWebKit/537.36 (KHTML, like Gecko) Chrome/92.0.4515.159 Safari/537.36" etag="ZdhoJaTcbYNr8uT1KYYk" version="15.0.0" type="github">
  <diagram id="twxR4VmU_WuDXmo_dy3A" name="Page-1">
    <mxGraphModel dx="868" dy="450" grid="1" gridSize="10" guides="1" tooltips="1" connect="1" arrows="1" fold="1" page="1" pageScale="1" pageWidth="827" pageHeight="1169" math="0" shadow="0">
      <root>
        <mxCell id="0" />
        <mxCell id="1" parent="0" />
        <mxCell id="ple-v1WZlG0ZhlbVwZn7-18" value="" style="group" vertex="1" connectable="0" parent="1">
          <mxGeometry x="70" y="130" width="370" height="240" as="geometry" />
        </mxCell>
        <mxCell id="ple-v1WZlG0ZhlbVwZn7-1" value="DE_VELA" style="whiteSpace=wrap;html=1;align=center;" vertex="1" parent="ple-v1WZlG0ZhlbVwZn7-18">
          <mxGeometry x="154" y="70" width="100" height="40" as="geometry" />
        </mxCell>
        <mxCell id="ple-v1WZlG0ZhlbVwZn7-2" value="registro" style="ellipse;whiteSpace=wrap;html=1;align=center;" vertex="1" parent="ple-v1WZlG0ZhlbVwZn7-18">
          <mxGeometry x="20" y="70" width="100" height="40" as="geometry" />
        </mxCell>
        <mxCell id="ple-v1WZlG0ZhlbVwZn7-3" value="modelo" style="ellipse;whiteSpace=wrap;html=1;align=center;" vertex="1" parent="ple-v1WZlG0ZhlbVwZn7-18">
          <mxGeometry x="90" width="100" height="40" as="geometry" />
        </mxCell>
        <mxCell id="ple-v1WZlG0ZhlbVwZn7-4" value="cantidadVelas" style="ellipse;whiteSpace=wrap;html=1;align=center;" vertex="1" parent="ple-v1WZlG0ZhlbVwZn7-18">
          <mxGeometry x="220" width="100" height="40" as="geometry" />
        </mxCell>
        <mxCell id="ple-v1WZlG0ZhlbVwZn7-5" value="Tipo" style="ellipse;whiteSpace=wrap;html=1;align=center;" vertex="1" parent="ple-v1WZlG0ZhlbVwZn7-18">
          <mxGeometry x="270" y="60" width="100" height="40" as="geometry" />
        </mxCell>
        <mxCell id="ple-v1WZlG0ZhlbVwZn7-6" value="capacidad" style="ellipse;whiteSpace=wrap;html=1;align=center;" vertex="1" parent="ple-v1WZlG0ZhlbVwZn7-18">
          <mxGeometry x="70" y="130" width="100" height="40" as="geometry" />
        </mxCell>
        <mxCell id="ple-v1WZlG0ZhlbVwZn7-7" value="propietario" style="ellipse;whiteSpace=wrap;html=1;align=center;" vertex="1" parent="ple-v1WZlG0ZhlbVwZn7-18">
          <mxGeometry x="260" y="130" width="100" height="40" as="geometry" />
        </mxCell>
        <mxCell id="ple-v1WZlG0ZhlbVwZn7-8" value="De carga" style="ellipse;whiteSpace=wrap;html=1;align=center;" vertex="1" parent="ple-v1WZlG0ZhlbVwZn7-18">
          <mxGeometry y="200" width="100" height="40" as="geometry" />
        </mxCell>
        <mxCell id="ple-v1WZlG0ZhlbVwZn7-9" value="De pasajeros" style="ellipse;whiteSpace=wrap;html=1;align=center;" vertex="1" parent="ple-v1WZlG0ZhlbVwZn7-18">
          <mxGeometry x="120" y="200" width="100" height="40" as="geometry" />
        </mxCell>
        <mxCell id="ple-v1WZlG0ZhlbVwZn7-10" value="" style="endArrow=none;html=1;entryX=0.5;entryY=1;entryDx=0;entryDy=0;exitX=0.75;exitY=0;exitDx=0;exitDy=0;" edge="1" parent="ple-v1WZlG0ZhlbVwZn7-18" source="ple-v1WZlG0ZhlbVwZn7-1" target="ple-v1WZlG0ZhlbVwZn7-4">
          <mxGeometry width="50" height="50" relative="1" as="geometry">
            <mxPoint x="179" y="70" as="sourcePoint" />
            <mxPoint x="229" y="20" as="targetPoint" />
          </mxGeometry>
        </mxCell>
        <mxCell id="ple-v1WZlG0ZhlbVwZn7-11" value="" style="endArrow=none;html=1;exitX=1;exitY=0.5;exitDx=0;exitDy=0;" edge="1" parent="ple-v1WZlG0ZhlbVwZn7-18" source="ple-v1WZlG0ZhlbVwZn7-1">
          <mxGeometry width="50" height="50" relative="1" as="geometry">
            <mxPoint x="260" y="90" as="sourcePoint" />
            <mxPoint x="270" y="80" as="targetPoint" />
          </mxGeometry>
        </mxCell>
        <mxCell id="ple-v1WZlG0ZhlbVwZn7-12" value="" style="endArrow=none;html=1;entryX=0.5;entryY=0;entryDx=0;entryDy=0;exitX=1;exitY=1;exitDx=0;exitDy=0;" edge="1" parent="ple-v1WZlG0ZhlbVwZn7-18" source="ple-v1WZlG0ZhlbVwZn7-1" target="ple-v1WZlG0ZhlbVwZn7-7">
          <mxGeometry width="50" height="50" relative="1" as="geometry">
            <mxPoint x="249" y="90" as="sourcePoint" />
            <mxPoint x="290" y="60" as="targetPoint" />
          </mxGeometry>
        </mxCell>
        <mxCell id="ple-v1WZlG0ZhlbVwZn7-13" value="" style="endArrow=none;html=1;entryX=0.5;entryY=0;entryDx=0;entryDy=0;exitX=0.25;exitY=1;exitDx=0;exitDy=0;" edge="1" parent="ple-v1WZlG0ZhlbVwZn7-18" source="ple-v1WZlG0ZhlbVwZn7-1" target="ple-v1WZlG0ZhlbVwZn7-6">
          <mxGeometry width="50" height="50" relative="1" as="geometry">
            <mxPoint x="259" y="100" as="sourcePoint" />
            <mxPoint x="300" y="70" as="targetPoint" />
          </mxGeometry>
        </mxCell>
        <mxCell id="ple-v1WZlG0ZhlbVwZn7-14" value="" style="endArrow=none;html=1;exitX=1;exitY=0.5;exitDx=0;exitDy=0;entryX=0;entryY=0.5;entryDx=0;entryDy=0;" edge="1" parent="ple-v1WZlG0ZhlbVwZn7-18" source="ple-v1WZlG0ZhlbVwZn7-2" target="ple-v1WZlG0ZhlbVwZn7-1">
          <mxGeometry width="50" height="50" relative="1" as="geometry">
            <mxPoint x="269" y="110" as="sourcePoint" />
            <mxPoint x="150" y="90" as="targetPoint" />
          </mxGeometry>
        </mxCell>
        <mxCell id="ple-v1WZlG0ZhlbVwZn7-15" value="" style="endArrow=none;html=1;entryX=0.63;entryY=1;entryDx=0;entryDy=0;entryPerimeter=0;" edge="1" parent="ple-v1WZlG0ZhlbVwZn7-18" source="ple-v1WZlG0ZhlbVwZn7-1" target="ple-v1WZlG0ZhlbVwZn7-3">
          <mxGeometry width="50" height="50" relative="1" as="geometry">
            <mxPoint x="279" y="120" as="sourcePoint" />
            <mxPoint x="320" y="90" as="targetPoint" />
          </mxGeometry>
        </mxCell>
        <mxCell id="ple-v1WZlG0ZhlbVwZn7-16" value="" style="endArrow=none;html=1;entryX=0;entryY=1;entryDx=0;entryDy=0;exitX=0.5;exitY=0;exitDx=0;exitDy=0;" edge="1" parent="ple-v1WZlG0ZhlbVwZn7-18" source="ple-v1WZlG0ZhlbVwZn7-8" target="ple-v1WZlG0ZhlbVwZn7-6">
          <mxGeometry width="50" height="50" relative="1" as="geometry">
            <mxPoint x="289" y="130" as="sourcePoint" />
            <mxPoint x="330" y="100" as="targetPoint" />
          </mxGeometry>
        </mxCell>
        <mxCell id="ple-v1WZlG0ZhlbVwZn7-17" value="" style="endArrow=none;html=1;entryX=0.74;entryY=0.95;entryDx=0;entryDy=0;exitX=0.59;exitY=0.025;exitDx=0;exitDy=0;exitPerimeter=0;entryPerimeter=0;" edge="1" parent="ple-v1WZlG0ZhlbVwZn7-18" source="ple-v1WZlG0ZhlbVwZn7-9" target="ple-v1WZlG0ZhlbVwZn7-6">
          <mxGeometry width="50" height="50" relative="1" as="geometry">
            <mxPoint x="299" y="140" as="sourcePoint" />
            <mxPoint x="340" y="110" as="targetPoint" />
          </mxGeometry>
        </mxCell>
      </root>
    </mxGraphModel>
  </diagram>
</mxfile>
